<svg version="1.1" id="Layer_1" xmlns="http://www.w3.org/2000/svg" xmlns:xlink="http://www.w3.org/1999/xlink" x="0px" y="0px"
	 viewBox="0 0 121 26" style="enable-background:new 0 0 121 26;" xml:space="preserve">
<style type="text/css">
	.st0{fill:#FFFFFF;}
</style>
<g>
	<g>
		<path class="st0" d="M103.6,22.7c-0.7,0-1.3,0-2,0c0-1.3,0-2.5,0-3.8c-0.3,0-0.5,0-0.7,0c-3,0-6,0-9,0c-0.5,0-0.7,0.1-0.6,0.6
			c0,1.1,0,2.1,0,3.2c-0.7,0-1.3,0-2,0c0-0.2,0-0.3,0-0.5c0-2.5,0-5,0.1-7.4c0.3-3.5,1.2-6.9,3.9-9.4c0.8-0.7,1.8-1.3,2.7-1.9
			c0.2-0.1,0.6-0.1,0.8,0c3.1,1.5,5,4.2,5.9,7.4c0.6,1.9,0.8,3.8,0.8,5.7C103.6,18.7,103.6,20.7,103.6,22.7z M101.6,17.1
			c0-0.2,0-0.3,0-0.5c-0.1-2.1-0.4-4.2-1.1-6.1c-0.7-1.8-1.7-3.4-3.4-4.6c-0.5-0.3-0.8-0.4-1.3,0c-1,0.7-1.8,1.7-2.5,2.7
			c-1.2,2-1.7,4.2-1.9,6.4c-0.1,0.7-0.1,1.3-0.1,2C94.8,17.1,98.2,17.1,101.6,17.1z"/>
		<path class="st0" d="M64,22.7c-0.7,0-1.3,0-2,0c0-1.3,0-2.5,0-3.8c-3.5,0-6.9,0-10.3,0c0,1.3,0,2.5,0,3.8c-0.7,0-1.3,0-2,0
			c0-0.1-0.1-0.3,0-0.4c0-2.5,0-5.1,0.1-7.6c0.2-3.3,1.2-6.4,3.5-8.9c0.9-1,1.9-1.7,3.1-2.3c0.2-0.1,0.6-0.1,0.8,0.1
			c3.1,1.6,4.9,4.2,5.9,7.4c0.6,1.9,0.8,3.8,0.8,5.7C64,18.7,64,20.7,64,22.7z M51.6,17c0.1,0.1,0.2,0.1,0.2,0.1c3.2,0,6.5,0,9.7,0
			c0.4,0,0.4-0.2,0.4-0.5c-0.1-1.3-0.2-2.6-0.5-3.8C61,10.3,60,8.1,58.1,6.4c-1.4-1.2-1.3-1.2-2.6,0C52.4,9.3,51.8,13.1,51.6,17z"/>
		<path class="st0" d="M112.4,14.6c2.7,2.7,5.3,5.4,8.1,8.2c-1,0-1.9,0-2.7,0c-0.2,0-0.4-0.2-0.5-0.4c-2.3-2.3-4.7-4.7-7-7
			c-0.4-0.4-0.9-0.6-1.5-0.6c-1.4,0-1.4,0-1.4,1.4c0,2,0,4,0,5.9c0,0.2,0,0.4,0,0.7c-0.7,0-1.3,0-2,0c0-6.2,0-12.3,0-18.5
			c0,0,0.1-0.1,0.1-0.1c2.3,0,4.6-0.1,6.8,0.1c2.3,0.2,3.8,1.8,4.2,4c0.4,2-0.4,4-2.3,5.2C113.7,14,113.1,14.2,112.4,14.6z
			 M107.4,9.4c0,1,0,2.1,0,3.1c0,0.4,0.1,0.5,0.5,0.5c0.8,0,1.7,0,2.5,0c1,0,1.9-0.3,2.7-0.9c1.2-0.9,1.7-2.2,1.4-3.6
			c-0.3-1.4-1.3-2.4-2.9-2.5c-1.3-0.1-2.5-0.1-3.8-0.1c-0.4,0-0.4,0.2-0.4,0.5C107.4,7.4,107.4,8.4,107.4,9.4z"/>
		<path class="st0" d="M47.9,19.2c0,0.7,0,1.4,0,2c0,0.2-0.2,0.5-0.3,0.6c-4,2.4-10.1,1.8-13.6-1.2C29.2,16.3,29.7,9.1,35,5.7
			c3.9-2.5,8-2.6,12.2-0.7c0.4,0.2,0.6,0.5,0.6,1c0,0.5,0,1.1,0,1.7c-0.2-0.1-0.4-0.2-0.5-0.4c-3.7-2.6-9.2-2.1-12.4,1
			c-2.9,3-2.8,7.8,0.3,10.6c3.2,2.9,8.5,3.1,12.1,0.6C47.5,19.4,47.6,19.3,47.9,19.2z"/>
		<path class="st0" d="M65.8,22.7c0-6.2,0-12.3,0-18.5c3.1,0,6.1,0,9.2,0c0,0.5,0,1,0,1.6c-0.2,0-0.4,0-0.7,0c-2,0-3.9,0-5.9,0
			c-0.5,0-0.7,0.1-0.7,0.6c0,1.6,0,3.1,0,4.7c2.2,0,4.4,0,6.7,0c0,0.6,0,1.2,0,1.8c-2.2,0-4.4,0-6.6,0c0,2.7,0,5.3,0,7.9
			c2.7,0,5.5,0,8.2,0c0,0.6,0,1.2,0,1.8C72.6,22.7,69.2,22.7,65.8,22.7z"/>
		<path class="st0" d="M76.8,20.4c0.4-0.4,0.7-0.8,1.1-1.3c0.4,0.4,0.8,0.7,1.3,1.1c1.3,1,2.7,1.5,4.4,1.1c2.5-0.5,3.6-3.6,1.8-5.3
			c-1-0.9-2.2-1.6-3.3-2.4c-1.1-0.7-2.2-1.4-3.2-2.2c-1.4-1.1-1.8-2.7-1.3-4.4C78,5.4,79.2,4.4,80.9,4c2.3-0.6,4.3,0,6.2,1.5
			c-0.3,0.5-0.6,0.9-0.8,1.3c-1-0.4-1.9-0.8-2.8-1.1c-0.8-0.3-1.7-0.2-2.5,0.2c-1.7,0.8-2.1,2.9-0.7,4.1c0.5,0.4,1.1,0.8,1.6,1.1
			c1.3,0.8,2.5,1.5,3.8,2.4c1.1,0.8,2,1.8,2.4,3.2c0.6,2.3-0.5,4.7-2.6,5.8C82.5,24,78.9,23,76.8,20.4z"/>
		<path class="st0" d="M49.3,1.7c-0.3,0.4-0.5,0.8-0.7,1.2c-0.2,0.4-0.4,0.8-0.6,1.2c-0.2-0.1-0.4-0.2-0.6-0.3
			C42.8,1.5,38.3,2.1,34.1,5c-1.6,1.1-3.1,2.1-5,2.5c-0.5,0.1-1,0.2-1.5,0.2c-0.2-0.8-0.2-0.8,0.5-0.9c1.3-0.3,2.6-0.9,3.7-1.6
			c1.1-0.7,2.2-1.5,3.3-2.3c2.7-1.8,5.6-2.7,8.8-2.6C45.8,0.4,47.6,0.9,49.3,1.7z"/>
	</g>
	<g>
		<path class="st0" d="M0.2,19.2c0-0.7,0.1-1.4,0.4-1.9s0.7-1,1.2-1.3s1.1-0.5,1.8-0.5c1,0,1.8,0.3,2.4,0.9c0.6,0.6,1,1.4,1,2.4
			l0,0.5c0,1.1-0.3,2-0.9,2.7s-1.5,1-2.5,1s-1.9-0.3-2.5-1S0.2,20.4,0.2,19.2L0.2,19.2z M2.2,19.3c0,0.7,0.1,1.2,0.4,1.6
			c0.3,0.4,0.6,0.5,1.1,0.5c0.5,0,0.8-0.2,1.1-0.5C5,20.5,5.2,20,5.2,19.2c0-0.7-0.1-1.2-0.4-1.6C4.5,17.2,4.1,17,3.7,17
			c-0.5,0-0.8,0.2-1.1,0.6C2.3,18,2.2,18.5,2.2,19.3z"/>
		<path class="st0" d="M14.9,19.3c0,1.1-0.3,2-0.8,2.7s-1.2,1-2.1,1c-0.7,0-1.3-0.3-1.8-0.8v3.4H8.3V15.6h1.8l0.1,0.7
			c0.5-0.6,1.1-0.8,1.8-0.8c0.9,0,1.6,0.3,2.1,1s0.7,1.6,0.7,2.7V19.3z M12.9,19.2c0-0.7-0.1-1.2-0.4-1.6c-0.2-0.4-0.6-0.6-1-0.6
			c-0.6,0-1,0.2-1.3,0.7v3c0.2,0.5,0.7,0.7,1.3,0.7C12.4,21.4,12.9,20.7,12.9,19.2z"/>
		<path class="st0" d="M19.4,23c-1.1,0-1.9-0.3-2.6-1c-0.7-0.7-1-1.5-1-2.6v-0.2c0-0.7,0.1-1.4,0.4-2c0.3-0.6,0.7-1,1.2-1.3
			c0.5-0.3,1.1-0.5,1.8-0.5c1,0,1.8,0.3,2.3,0.9c0.6,0.6,0.9,1.5,0.9,2.7v0.8h-4.6c0.1,0.5,0.3,0.9,0.6,1.1c0.3,0.3,0.7,0.4,1.2,0.4
			c0.7,0,1.3-0.3,1.8-0.8l1,1.1c-0.3,0.4-0.7,0.7-1.2,1S20,23,19.4,23z M19.2,17c-0.4,0-0.7,0.1-0.9,0.4c-0.2,0.3-0.4,0.6-0.5,1.1
			h2.7v-0.2c0-0.4-0.1-0.8-0.3-1C19.9,17.2,19.6,17,19.2,17z"/>
		<path class="st0" d="M25.3,15.6l0.1,0.8c0.5-0.6,1.2-1,2.1-1c0.8,0,1.3,0.2,1.7,0.7c0.4,0.5,0.6,1.1,0.6,2v4.7h-1.9v-4.7
			c0-0.4-0.1-0.7-0.3-0.9C27.3,17.1,27,17,26.6,17c-0.5,0-1,0.2-1.2,0.7v5.1h-1.9v-7.3H25.3z"/>
	</g>
</g>
</svg>
